{"title":"T-Pain feat. Chris Brown - Best Love Song 1080p Anky","uid":6542656,"size":163179426,"categoryP":"video","categoryS":"music_videos","magnet":"?xt=urn:btih:cebbb9e9137e8cb4c1ce5bd6b8dd7b44d419ec5e&amp;dn=T-Pain+feat.+Chris+Brown+-+Best+Love+Song+1080p+Anky&amp;tr=udp%3A%2F%2Ftracker.openbittorrent.com%3A80&amp;tr=udp%3A%2F%2Fopen.demonii.com%3A1337&amp;tr=udp%3A%2F%2Ftracker.coppersurfer.tk%3A6969&amp;tr=udp%3A%2F%2Fexodus.desync.com%3A6969","seeders":0,"leechers":1,"uploader":"ankygautam","files":2,"time":1310749690,"description":"General\nComplete name                    : T-Pain feat. Chris Brown - Best Love Song 1080p Anky.mp4\nFormat                           : MPEG-4\nFormat profile                   : Base Media / Version 2\nCodec ID                         : mp42\nFile size                        : 156 MiB\nDuration                         : 3mn 49s\nOverall bit rate                 : 5 691 Kbps\nVideo\nID                               : 1\nFormat                           : AVC\nFormat/Info                      : Advanced Video Codec\nFormat profile                   : &lt;a class=&quot;__cf_email__&quot; href=&quot;/cdn-cgi/l/email-protection&quot; data-cfemail=&quot;7038191718303c445e40&quot;&gt;[email&amp;#160;protected]&lt;/a&gt;&lt;script cf-hash='f9e31' type=&quot;text/javascript&quot;&gt;\n/* &lt;![CDATA[ */!function(){try{var t=&quot;currentScript&quot;in document?document.currentScript:function(){for(var t=document.getElementsByTagName(&quot;script&quot;),e=t.length;e--;)if(t[e].getAttribute(&quot;cf-hash&quot;))return t[e]}();if(t&amp;&amp;t.previousSibling){var e,r,n,i,c=t.previousSibling,a=c.getAttribute(&quot;data-cfemail&quot;);if(a){for(e=&quot;&quot;,r=parseInt(a.substr(0,2),16),n=2;a.length-n;n+=2)i=parseInt(a.substr(n,2),16)^r,e+=String.fromCharCode(i);e=document.createTextNode(e),c.parentNode.replaceChild(e,c)}}}catch(u){}}();/* ]]&gt; */&lt;/script&gt;\nFormat settings, CABAC           : Yes\nFormat settings, ReFrames        : 1 frame\nCodec ID                         : avc1\nCodec ID/Info                    : Advanced Video Coding\nDuration                         : 3mn 49s\nBit rate mode                    : Variable\nBit rate                         : 5 534 Kbps\nMaximum bit rate                 : 9 159 Kbps\nWidth                            : 1 920 pixels\nHeight                           : 1 080 pixels\nDisplay aspect ratio             : 16:9\nFrame rate mode                  : Variable\nFrame rate                       : 23.976 fps\nMinimum frame rate               : 17.241 fps\nMaximum frame rate               : 24.390 fps\nResolution                       : 24 bits\nColorimetry                      : 4:2:0\nScan type                        : Progressive\nBits/(Pixel*Frame)               : 0.111\nStream size                      : 151 MiB (97%)\n\nAudio\nID                               : 2\nFormat                           : AAC\nFormat/Info                      : Advanced Audio Codec\nFormat version                   : Version 4\nFormat profile                   : LC\nFormat settings, SBR             : No\nCodec ID                         : 40\nDuration                         : 3mn 49s\nBit rate mode                    : Variable\nBit rate                         : 151 Kbps\nMaximum bit rate                 : 193 Kbps\nChannel(s)                       : 2 channels\nChannel positions                : L R\nSampling rate                    : 44.1 KHz\nResolution                       : 16 bits\nStream size                      : 4.12 MiB (3%)\n\n\n\n &lt;a href=&quot;\nhttp://img.sceper.eu/images/vlcsnanrn.png&quot; rel=&quot;nofollow&quot; target=&quot;_NEW&quot;&gt;\nhttp://img.sceper.eu/images/vlcsnanrn.png&lt;/a&gt; &lt;a href=&quot;\nhttp://img.sceper.eu/images/vlcsnagng.jpg&quot; rel=&quot;nofollow&quot; target=&quot;_NEW&quot;&gt;\nhttp://img.sceper.eu/images/vlcsnagng.jpg&lt;/a&gt;","torrent":{"xt":"urn:btih:cebbb9e9137e8cb4c1ce5bd6b8dd7b44d419ec5e","amp;dn":"T-Pain+feat.+Chris+Brown+-+Best+Love+Song+1080p+Anky","amp;tr":["udp%3A%2F%2Ftracker.openbittorrent.com%3A80","udp%3A%2F%2Fopen.demonii.com%3A1337","udp%3A%2F%2Ftracker.coppersurfer.tk%3A6969","udp%3A%2F%2Fexodus.desync.com%3A6969"],"infoHash":"cebbb9e9137e8cb4c1ce5bd6b8dd7b44d419ec5e","infoHashBuffer":{"type":"Buffer","data":[206,187,185,233,19,126,140,180,193,206,91,214,184,221,123,68,212,25,236,94]},"announce":[],"urlList":[]}}